#tb 0: 1/44100
#media_type 0: audio
#codec_id 0: pcm_s16le
#sample_rate 0: 44100
#channel_layout_name 0: stereo
0,          0,          0,     4096,    16384, 0xdc17da79
0,       4096,       4096,     4096,    16384, 0xa9d2d0f5
0,       8192,       8192,     4096,    16384, 0x289ada9d
0,      12288,      12288,     4096,    16384, 0x436e0338
0,      16384,      16384,     4096,    16384, 0x0034deaf
0,      20480,      20480,     4096,    16384, 0x8ec8e357
0,      24576,      24576,     4096,    16384, 0xa629f685
0,      28672,      28672,     4096,    16384, 0xedefe76f
0,      32768,      32768,     4096,    16384, 0x02ebe66b
0,      36864,      36864,     4096,    16384, 0x35bfe081
0,      40960,      40960,     4096,    16384, 0xdbc2b3b9
0,      45056,      45056,     4096,    16384, 0xe92bd835
0,      49152,      49152,     4096,    16384, 0x1126dca3
0,      53248,      53248,     4096,    16384, 0x9647edcf
0,      57344,      57344,     4096,    16384, 0x5cc345aa
0,      61440,      61440,     4096,    16384, 0x19d7bd51
0,      65536,      65536,     4096,    16384, 0x19eccef7
0,      69632,      69632,     4096,    16384, 0x4b68eeed
0,      73728,      73728,     4096,    16384, 0x0b3d1bfc
0,      77824,      77824,     4096,    16384, 0xe9b2e069
